<?xml version="1.0" encoding="UTF-8" standalone="no"?>
<svg
   viewBox="0 0 274555.03 274555.03"
   version="1.1"
   id="svg1"
   width="274555.03"
   height="274555.03"
   xmlns="http://www.w3.org/2000/svg"
   xmlns:svg="http://www.w3.org/2000/svg">
  <defs
     id="defs1">
    <style
       id="style1">.f{fill:#fff;}.f,.g{fill-rule:evenodd;}.g{fill:#ff6900;}</style>
  </defs>
  <g
     id="a"
     image-rendering="optimizeQuality"
     shape-rendering="geometricPrecision"
     text-rendering="geometricPrecision"
     transform="translate(20.962076,20.962076)">
    <g
       id="b">
      <circle
         id="c"
         cx="261.97"
         cy="261.97"
         r="262.01001" />
      <path
         id="d"
         class="f"
         d="m 101.44,404.34 -1.08,-1.22 5.42,-4.83 1.14,1.28 c 1.98,2.23 2.16,4.07 0.52,5.52 -1.98,1.76 -3.98,1.51 -6,-0.76 z m 325.97,-4.79 c -2.4,-2.08 -4.52,-3.2 -6.38,-3.38 -1.86,-0.18 -3.48,0.55 -4.88,2.17 -2.85,3.3 -1.94,6.97 2.75,11.03 4.65,4.02 8.38,4.39 11.22,1.12 1.44,-1.67 1.95,-3.39 1.51,-5.17 -0.43,-1.78 -1.84,-3.71 -4.23,-5.77 z M 140.04,92.06 c 2.18,-1.53 3.33,-3.28 3.46,-5.25 0.13,-1.98 -0.72,-4.26 -2.54,-6.86 -1.7,-2.43 -3.45,-3.89 -5.23,-4.39 -1.78,-0.5 -3.65,-0.06 -5.61,1.31 l -2.08,1.46 10.41,14.85 z M 345.8,449.64 c 0.19,0.73 0.46,1.94 0.82,3.64 0.36,1.7 0.98,5.1 1.85,10.18 l 6.22,-2.87 -3.45,-4.15 c -0.78,-0.92 -1.76,-2.11 -2.96,-3.59 -1.19,-1.48 -2.02,-2.55 -2.49,-3.21 z M 225.74,44.44 c -0.52,-1.11 -1.18,-2.54 -1.96,-4.31 -0.78,-1.77 -1.32,-3.04 -1.6,-3.81 0,0.76 -0.04,2.03 -0.13,3.8 -0.09,1.77 -0.36,5.27 -0.8,10.51 l 6.78,-1.19 z m -181.37,246.71 1.04,6.77 4.95,-2.16 c 1.1,-0.5 2.52,-1.11 4.27,-1.85 1.75,-0.74 3.01,-1.24 3.77,-1.5 -0.75,-0.02 -1.99,-0.09 -3.73,-0.22 -1.74,-0.13 -5.17,-0.47 -10.3,-1.04 z m 119.97,-221.01 6.18,-3.03 -3.59,-4.16 c -0.81,-0.92 -1.84,-2.12 -3.08,-3.59 -1.24,-1.48 -2.11,-2.55 -2.6,-3.21 0.21,0.73 0.52,1.96 0.93,3.69 0.41,1.72 1.13,5.16 2.16,10.31 z m 313.78,163.31 -0.91,-6.79 -4.99,2.07 c -1.11,0.47 -2.54,1.06 -4.3,1.76 -1.76,0.7 -3.03,1.18 -3.8,1.43 0.75,0.03 1.99,0.13 3.72,0.29 1.73,0.16 5.16,0.58 10.27,1.24 z m -2.61,50.95 c -3.14,-0.43 -5.54,-0.22 -7.19,0.64 -1.65,0.86 -2.62,2.35 -2.91,4.48 -0.6,4.32 2.18,6.9 8.32,7.75 6.09,0.84 9.42,-0.88 10.02,-5.17 0.3,-2.18 -0.21,-3.9 -1.55,-5.16 -1.34,-1.26 -3.56,-2.1 -6.69,-2.54 z m 29.91,-21.59 C 505.77,371.95 430,469.01 324.82,497.02 170.42,538.49 19,422.84 18.52,262.98 18.44,106.09 165.83,-12.31 318.92,25.63 427.05,52.07 505.77,151.26 505.42,262.81 Z m -47.25,-35.89 1.54,11.5 33.02,6.19 -1.26,-9.47 -6.12,-0.83 -1.38,-10.37 5.69,-2.36 -1.26,-9.43 -30.22,14.76 z m -28.89,-77.56 13.1,5.38 0.16,0.13 0.05,0.2 -1.26,14 0.05,0.02 9.16,-10.77 0.11,-0.09 h 0.26 c 0,0 13.11,5.2 13.11,5.2 l 0.04,-0.05 -7.18,-11.85 -0.05,-0.2 0.08,-0.19 9.15,-10.59 -0.03,-0.05 -13.46,3.23 -0.23,-0.03 -0.12,-0.11 -7.36,-11.85 h -0.06 c 0,0 -1.26,14.02 -1.26,14.02 l -0.08,0.19 -0.17,0.1 -14.01,3.23 v 0.06 z m -60.52,-59.22 7.17,5.08 6.26,-8.83 3.01,0.23 -1.94,13.8 8.06,5.71 2.15,-20.38 16.72,-5.93 -7.8,-5.53 -11.28,4.16 c -2.19,0.76 -3.72,1.37 -4.58,1.83 l 8.13,-11.47 -7.17,-5.08 -18.72,26.41 z m -12.75,-6.96 7.69,4.27 15.72,-28.31 -7.69,-4.27 z m -33.36,-14.48 7.2,2.88 5.42,-13.55 c 0.7,-1.75 1.59,-4.35 2.66,-7.78 l 0.18,0.07 2.5,25.57 10.65,4.26 12.03,-30.06 -7.24,-2.9 -5.44,13.59 c -0.73,1.84 -1.61,4.31 -2.63,7.42 l -0.12,-0.05 -2.58,-25.27 -10.61,-4.25 -12.03,30.06 z m -28.77,-6.52 8.58,1.89 2.33,-10.57 2.86,-0.96 3.58,13.47 9.64,2.13 -5.95,-19.61 13.1,-11.96 -9.34,-2.06 -8.78,8.22 c -1.72,1.56 -2.89,2.71 -3.51,3.47 l 3.03,-13.73 -8.59,-1.89 -6.98,31.62 z m -23.33,-2.15 19.15,1.64 0.61,-7.1 -10.44,-0.9 0.52,-6.09 9.66,0.83 0.6,-7 -9.66,-0.83 0.44,-5.08 10.44,0.9 0.6,-7 -19.15,-1.64 -2.77,32.26 z m -28.89,-31.81 0.24,7.15 7.9,-0.27 0.85,25.21 8.74,-0.3 -0.85,-25.21 7.88,-0.27 -0.24,-7.15 -24.52,0.83 z m -30.99,37.7 9.47,-1.66 0.57,-6.26 10.36,-1.82 2.62,5.7 9.42,-1.65 -16.15,-30.18 -11.5,2.01 -4.79,33.84 z m -32.93,-23 2.21,6.8 7.52,-2.45 7.81,23.99 8.32,-2.71 -7.81,-23.99 7.5,-2.44 -2.21,-6.8 -23.33,7.59 z m -24.13,11.03 4.82,33.84 8.63,-4.23 -1.2,-6.17 9.45,-4.63 4.1,4.75 L 188,73.3 164.09,48.81 Z m -36.8,23.62 18.59,26.51 8.58,-6.01 c 4.41,-3.09 7,-6.69 7.75,-10.79 0.75,-4.1 -0.42,-8.36 -3.52,-12.79 -2.88,-4.11 -6.24,-6.44 -10.08,-6.99 -3.84,-0.55 -7.89,0.66 -12.14,3.65 l -9.17,6.43 z m -58.94,65.02 9.87,9.69 0.09,0.17 -0.03,0.21 -6.28,12.38 0.04,0.04 12.57,-6.29 0.15,-0.03 0.24,0.1 10.05,9.87 0.05,-0.03 -2.33,-13.63 0.03,-0.2 0.15,-0.15 12.38,-6.28 v -0.06 c 0,0 -14.01,-2.15 -14.01,-2.15 l -0.18,-0.09 -0.09,-0.18 -2.33,-13.83 h -0.06 c 0,0 -6.28,12.37 -6.28,12.37 l -0.12,0.13 -0.22,0.04 -13.64,-2.15 -0.03,0.05 z m -26.58,95.82 7.19,1.02 c -0.36,-1.41 -0.63,-2.81 -0.83,-4.19 -0.2,-1.38 -0.2,-2.77 0,-4.18 0.66,-4.67 4.02,-6.57 10.07,-5.71 2.91,0.41 5.12,1.31 6.61,2.69 1.49,1.38 2.1,3.1 1.81,5.15 -0.19,1.35 -0.56,2.59 -1.1,3.71 -0.54,1.12 -1.17,2.24 -1.88,3.34 l 6.32,3.59 c 1.92,-2.93 3.13,-6.12 3.62,-9.56 0.45,-3.16 0.17,-5.99 -0.83,-8.51 -1,-2.52 -2.64,-4.58 -4.93,-6.17 -2.29,-1.59 -5.07,-2.62 -8.32,-3.08 -5.21,-0.74 -9.37,-0.02 -12.49,2.16 -3.12,2.18 -5.02,5.67 -5.7,10.48 -0.48,3.36 -0.32,6.45 0.46,9.27 z m -1.79,36.21 31.77,-0.51 -0.14,-8.74 -11.78,0.19 -0.16,-10.11 11.78,-0.19 -0.14,-8.74 -31.77,0.51 0.14,8.74 12.95,-0.21 0.16,10.11 -12.95,0.21 z m 5.02,38.02 29.93,-15.35 -1.76,-11.47 -33.13,-5.55 1.45,9.45 6.13,0.71 1.58,10.34 -5.65,2.47 1.44,9.4 z m 14.27,23.7 -3.5,-11.9 23.83,-7.01 -2.46,-8.35 -30.48,8.97 5.95,20.24 6.65,-1.96 z m 40.13,28.86 -5.01,-10.47 -23.19,3.79 -0.08,-0.16 17.46,-15.79 -5,-10.45 -28.67,13.71 3.32,6.95 12.45,-5.95 c 1.95,-0.93 4.61,-2.38 8,-4.34 l 0.09,0.18 -17.81,15.81 3.57,7.47 23.41,-3.99 0.09,0.18 c -3.19,1.33 -5.18,2.17 -5.99,2.54 -0.81,0.36 -1.54,0.7 -2.19,1.01 l -12.57,6.01 3.45,7.21 z m -6.67,33.38 -5.9,-8.58 4.94,-3.4 5.46,7.95 5.68,-3.9 -5.46,-7.95 4.12,-2.83 5.9,8.58 5.68,-3.9 -10.83,-15.76 -26.19,18 10.83,15.75 z m 21.32,14.43 c 3.93,1.38 7.26,0.84 10.01,-1.61 4.67,-4.16 4.1,-9.51 -1.72,-16.05 l -7.02,-7.88 -23.72,21.14 5.79,6.5 8.63,-7.69 1.46,1.64 -4.09,12.79 6.56,7.37 4.09,-16.22 z m 35.27,10.57 c -1.62,-3.42 -3.7,-6.22 -6.21,-8.4 -2.85,-2.47 -5.63,-3.79 -8.33,-3.97 -2.7,-0.17 -5.01,0.84 -6.93,3.06 -1.02,1.18 -1.72,2.37 -2.09,3.57 -0.37,1.2 -0.44,2.47 -0.23,3.83 0.21,1.36 0.81,3.08 1.78,5.16 1.08,2.3 1.71,3.75 1.9,4.35 0.19,0.6 0.27,1.11 0.24,1.51 -0.03,0.4 -0.19,0.77 -0.47,1.1 -0.46,0.53 -1.05,0.76 -1.8,0.7 -0.75,-0.06 -1.61,-0.51 -2.58,-1.36 -1.13,-0.98 -2.22,-2.23 -3.27,-3.76 -1.05,-1.53 -1.92,-3.15 -2.62,-4.87 l -5.01,5.78 c 0.7,1.59 1.51,2.97 2.41,4.14 0.9,1.18 2.17,2.47 3.79,3.87 1.94,1.68 3.91,2.83 5.91,3.44 2,0.61 3.88,0.67 5.65,0.17 1.77,-0.49 3.29,-1.48 4.58,-2.97 1.4,-1.62 2.16,-3.32 2.27,-5.09 0.11,-1.77 -0.48,-4.04 -1.77,-6.78 -1.33,-2.88 -2.08,-4.72 -2.26,-5.52 -0.17,-0.8 -0.05,-1.44 0.35,-1.91 0.38,-0.44 0.89,-0.64 1.54,-0.6 0.64,0.04 1.39,0.43 2.25,1.17 1.65,1.43 3.17,3.65 4.56,6.65 l 6.35,-3.27 z m 37.52,28.67 3.28,-6.21 -21.58,-11.4 -3.28,6.21 6.95,3.67 -11.56,21.89 7.69,4.06 11.56,-21.89 6.93,3.66 z m 18.68,12.38 -9.01,-3.45 1.79,-4.67 9.73,3.72 2.46,-6.43 -17.85,-6.83 -11.36,29.68 17.85,6.83 2.5,-6.54 -9.73,-3.72 2.14,-5.6 9.01,3.45 2.46,-6.43 z m 22.12,8.26 13.18,-11.5 -9.25,-2.21 -8.83,7.91 c -1.73,1.5 -2.91,2.61 -3.53,3.34 l 3.2,-13.43 -8.51,-2.03 -7.37,30.91 8.5,2.03 2.46,-10.34 2.86,-0.88 3.38,13.29 9.56,2.28 -5.64,-19.38 z m 44.64,-9.18 -7.73,-0.56 -1.04,14.33 c -0.14,1.94 -0.22,4.51 -0.25,7.72 h -0.13 c 0,0 -10.09,-22.88 -10.09,-22.88 l -11.33,-0.82 -2.29,31.69 7.69,0.56 1.03,-14.29 c 0.13,-1.85 0.19,-4.54 0.17,-8.07 h 0.2 c 0,0 10.11,23.19 10.11,23.19 l 11.38,0.82 2.29,-31.69 z m 15.36,30.67 -1.62,-31.74 -8.73,0.45 1.62,31.74 z m 27.76,-13.23 c -0.32,-2.12 -1.11,-3.8 -2.39,-5.04 -1.28,-1.24 -3.38,-2.26 -6.3,-3.07 -3.05,-0.86 -4.94,-1.49 -5.66,-1.88 -0.72,-0.39 -1.12,-0.89 -1.22,-1.51 -0.08,-0.57 0.1,-1.09 0.55,-1.55 0.45,-0.46 1.24,-0.78 2.35,-0.94 2.16,-0.32 4.83,-0.03 8.01,0.87 l 1.66,-6.95 c -3.65,-0.99 -7.13,-1.25 -10.42,-0.75 -3.73,0.56 -6.54,1.8 -8.44,3.74 -1.89,1.94 -2.62,4.35 -2.19,7.25 0.23,1.55 0.68,2.85 1.35,3.91 0.67,1.06 1.59,1.95 2.76,2.67 1.17,0.72 2.86,1.39 5.08,2.01 2.45,0.68 3.96,1.14 4.54,1.39 0.58,0.25 1.01,0.52 1.3,0.81 0.29,0.29 0.46,0.65 0.53,1.08 0.1,0.69 -0.11,1.29 -0.64,1.82 -0.53,0.53 -1.43,0.88 -2.71,1.07 -1.48,0.22 -3.14,0.23 -4.98,0.03 -1.84,-0.2 -3.64,-0.6 -5.41,-1.18 l 1.13,7.57 c 1.66,0.5 3.23,0.79 4.72,0.87 1.48,0.08 3.28,-0.04 5.4,-0.35 2.54,-0.38 4.69,-1.13 6.46,-2.25 1.76,-1.12 3.03,-2.51 3.81,-4.17 0.78,-1.66 1.02,-3.47 0.73,-5.42 z m 34.83,0.39 -14.47,-14.07 5.78,-16.5 -9.14,2.65 -3.78,11.24 c -0.77,2.15 -1.24,3.7 -1.43,4.65 l -3.85,-13.25 -8.4,2.44 8.85,30.52 8.4,-2.44 -2.96,-10.21 2.05,-2.18 9.5,9.89 9.43,-2.74 z m 32.11,-14.56 -23.04,-24.5 -10.54,4.87 3.85,33.37 8.68,-4.01 -1.02,-6.09 9.5,-4.39 3.94,4.74 8.64,-3.99 z m 6.38,-57.95 C 445.15,356.22 468.48,264.74 436.28,186.01 387.48,68.97 243.06,30.79 142.86,108.52 c -97.66,76.42 -97.62,224.9 0.35,301.07 69.52,54.19 165.93,54.55 235.04,-0.57 z m 29.15,-20.17 c 0.8,0.69 1.65,0.98 2.54,0.87 0.89,-0.11 1.73,-0.62 2.5,-1.52 0.77,-0.89 1.14,-1.79 1.12,-2.71 -0.02,-0.92 -0.42,-1.72 -1.2,-2.39 -0.79,-0.68 -1.64,-0.97 -2.56,-0.86 -0.92,0.11 -1.76,0.61 -2.53,1.5 -0.77,0.89 -1.15,1.79 -1.13,2.69 0.01,0.9 0.43,1.71 1.25,2.42 z m -1.97,2.28 c -0.8,-0.69 -1.66,-0.98 -2.57,-0.87 -0.91,0.11 -1.75,0.61 -2.51,1.49 -0.75,0.87 -1.12,1.75 -1.11,2.66 0.01,0.91 0.43,1.71 1.25,2.42 0.81,0.7 1.66,0.99 2.55,0.87 0.89,-0.12 1.71,-0.62 2.46,-1.48 0.76,-0.88 1.13,-1.78 1.11,-2.69 -0.02,-0.92 -0.42,-1.72 -1.2,-2.39 z m 13.38,41.42 -20.37,-24.39 -6.71,5.6 7.55,9.04 -7.76,6.48 -7.55,-9.04 -6.71,5.6 20.37,24.39 6.71,-5.6 -8.3,-9.94 7.76,-6.48 8.3,9.94 z m 21.22,-28.95 c -0.36,-3.83 -2.57,-7.49 -6.61,-10.99 -4.05,-3.51 -7.99,-5.17 -11.81,-4.98 -3.82,0.19 -7.41,2.22 -10.76,6.09 -3.34,3.86 -4.84,7.72 -4.48,11.57 0.36,3.85 2.53,7.51 6.53,10.97 4.04,3.5 8,5.15 11.88,4.94 3.88,-0.21 7.47,-2.22 10.77,-6.04 3.35,-3.87 4.85,-7.73 4.48,-11.56 z m 23.18,-31.07 -14.55,-9.03 -7.32,11.81 5.63,3.49 3.03,-4.88 4.23,2.62 c -0.36,1.05 -0.89,2.13 -1.57,3.23 -1.25,2.01 -2.86,3.14 -4.85,3.38 -1.99,0.24 -4.24,-0.41 -6.76,-1.98 -2.57,-1.6 -4.19,-3.41 -4.84,-5.45 -0.65,-2.04 -0.31,-4.14 1.03,-6.29 1.46,-2.36 3.29,-4.23 5.47,-5.6 l -4.28,-5.89 c -1.2,0.83 -2.43,1.91 -3.7,3.24 -1.27,1.33 -2.44,2.86 -3.5,4.58 -2.82,4.54 -3.79,8.83 -2.93,12.85 0.86,4.02 3.47,7.39 7.83,10.09 4.47,2.77 8.63,3.76 12.47,2.95 3.84,-0.8 7.07,-3.32 9.69,-7.53 2.38,-3.84 4.03,-7.7 4.93,-11.58 z m 10.52,-21.28 c 0,-2.09 -0.49,-3.91 -1.47,-5.46 -0.98,-1.55 -2.38,-2.72 -4.17,-3.53 -1.96,-0.87 -3.8,-1.11 -5.53,-0.7 -1.73,0.41 -3.72,1.63 -5.98,3.66 -2.37,2.11 -3.91,3.36 -4.63,3.76 -0.72,0.4 -1.36,0.47 -1.93,0.21 -0.53,-0.24 -0.87,-0.67 -1.02,-1.3 -0.15,-0.63 0,-1.46 0.47,-2.49 0.89,-2 2.57,-4.09 5.04,-6.29 l -4.97,-5.13 c -2.8,2.54 -4.88,5.34 -6.24,8.38 -1.54,3.45 -2,6.49 -1.38,9.13 0.62,2.64 2.26,4.55 4.93,5.75 1.43,0.64 2.77,0.96 4.02,0.96 1.25,0 2.5,-0.29 3.73,-0.89 1.24,-0.6 2.71,-1.67 4.43,-3.2 1.88,-1.7 3.09,-2.73 3.61,-3.08 0.52,-0.35 0.98,-0.58 1.38,-0.66 0.4,-0.09 0.79,-0.04 1.19,0.13 0.64,0.28 1.03,0.79 1.19,1.52 0.16,0.73 -0.03,1.69 -0.55,2.87 -0.61,1.37 -1.5,2.77 -2.66,4.22 -1.16,1.44 -2.46,2.75 -3.9,3.93 l 6.99,3.12 c 1.32,-1.13 2.4,-2.3 3.27,-3.51 0.86,-1.21 1.73,-2.79 2.61,-4.75 1.05,-2.35 1.57,-4.56 1.58,-6.65 z m 13.51,-38.01 -19.66,4.55 -10.74,-13.79 -2.72,9.12 7.4,9.26 c 1.4,1.81 2.44,3.05 3.13,3.71 l -13.23,-3.94 -2.5,8.38 30.45,9.07 2.5,-8.38 -10.19,-3.04 -0.72,-2.9 13.46,-2.63 2.8,-9.41 z m 1.07,-32.31 c -2.39,-3.01 -6.24,-4.89 -11.53,-5.62 -5.31,-0.73 -9.52,0.02 -12.62,2.26 -3.1,2.24 -5.01,5.9 -5.71,10.97 -0.7,5.06 0.15,9.11 2.55,12.15 2.4,3.04 6.21,4.92 11.45,5.64 5.3,0.73 9.51,-0.04 12.65,-2.33 3.14,-2.29 5.05,-5.93 5.75,-10.93 0.7,-5.08 -0.14,-9.12 -2.54,-12.13 z m 4.51,-11.25 -0.34,-21.1 -6.93,0.11 0.2,12.4 -24.84,0.4 0.14,8.7 z" />
      <path
         id="e"
         class="g"
         d="m 208.77,83.92 -2.47,0.67 c -29.56,8.49 -56.62,25.2 -78.31,46.91 l -1.83,1.86 -0.06,0.08 -0.04,0.18 0.02,0.09 0.12,0.15 0.18,0.05 h 15.86 l 0.09,0.09 v 31.21 l -0.09,0.09 h -39.33 l -0.16,0.04 -0.12,0.12 -1.35,2.37 c -5.61,10.37 -9.92,21.76 -13.24,33.06 l -0.79,2.97 v 0.15 c 0,0 0.06,0.14 0.06,0.14 l 0.11,0.09 0.14,0.03 h 121.2 l 0.13,-0.03 0.1,-0.07 0.07,-0.1 0.03,-0.13 v -40.17 l -0.03,-0.13 -0.07,-0.1 -0.1,-0.07 -0.13,-0.03 H 177.7 l -0.09,-0.09 v -29.36 l 0.09,-0.09 h 31.06 l 0.13,-0.03 0.1,-0.07 0.07,-0.1 0.03,-0.13 V 84.22 l -0.03,-0.15 -0.09,-0.12 -0.2,-0.07 z m -122.1,124.91 -0.19,0.06 -0.12,0.16 -0.99,2.93 c -10.22,32.68 -8.22,68.33 0.52,101.12 l 0.84,2.98 0.12,0.17 0.2,0.07 h 40.21 l 0.17,-0.04 0.12,-0.12 0.04,-0.17 -0.05,-0.16 -0.69,-1.19 c -5.02,-10.29 -6.86,-22.02 -8.13,-33.3 l -0.16,-1.95 0.09,-0.09 h 94.01 l 0.13,-0.03 0.1,-0.07 0.07,-0.1 0.03,-0.13 V 242.5 l -0.03,-0.13 -0.07,-0.1 -0.1,-0.07 -0.13,-0.03 h -94.01 l -0.08,-0.09 0.45,-3.23 c 1.39,-9.46 3.48,-19.2 7.69,-27.84 l 0.88,-1.69 0.04,-0.16 -0.05,-0.16 -0.12,-0.12 -0.16,-0.04 H 86.67 Z m 172.85,-99.62 c -1.01,0.05 -0.08,303.08 -0.23,303.48 1.92,0.29 5.79,-0.1 7.76,-0.1 15.05,-0.76 30.26,-3.83 44.41,-9.01 41.46,-14.99 75.45,-48.98 90.44,-90.43 36.06,-99.22 -37.47,-202.64 -142.39,-203.93 z m -87.22,176.46 -0.13,0.03 -0.1,0.07 -0.07,0.1 -0.03,0.13 v 86.56 l -0.09,0.06 -0.97,-0.52 c -17.2,-10.45 -28.76,-28.14 -37.79,-45.69 l -1.71,-3.51 -0.12,-0.13 -0.17,-0.05 H 89.11 l -0.15,0.04 -0.12,0.1 -0.06,0.15 0.02,0.16 0.85,2.23 c 9.79,23.91 24.64,45.94 42.94,64.17 l 2.51,2.39 2.54,2.31 c 11,9.25 23.45,19.09 38.29,20.28 15.22,1.23 32.57,-8.06 36.78,-23.32 0.09,-0.31 0.15,-0.64 0.18,-0.96 l 0.03,-0.24 c 0.05,-0.41 0.07,-0.82 0.07,-1.24 V 286.01 c 0,0 -0.03,-0.13 -0.03,-0.13 l -0.07,-0.1 -0.1,-0.07 -0.13,-0.03 H 172.3 Z"
         style="fill:#ffffff;fill-opacity:1" />
    </g>
  </g>
</svg>
